<?xml version="1.0" standalone="no"?>
<!DOCTYPE svg PUBLIC "-//W3C//DTD SVG 20010904//EN"
 "http://www.w3.org/TR/2001/REC-SVG-20010904/DTD/svg10.dtd">
<svg version="1.0" xmlns="http://www.w3.org/2000/svg"
 width="53.000000pt" height="34.000000pt" viewBox="0 0 53.000000 34.000000"
 preserveAspectRatio="xMidYMid meet">

<g transform="translate(0.000000,34.000000) scale(0.100000,-0.100000)"
fill="#000000" stroke="none">
<path d="M10 310 l0 -30 185 0 185 0 0 30 0 30 -185 0 -185 0 0 -30z"/>
<path d="M412 237 l-73 -74 72 -67 71 -68 21 21 21 21 -49 50 -49 50 49 50
c49 50 49 50 29 70 -20 20 -20 20 -92 -53z"/>
<path d="M10 170 l0 -30 140 0 140 0 0 30 0 30 -140 0 -140 0 0 -30z"/>
<path d="M10 30 l0 -30 185 0 185 0 0 30 0 30 -185 0 -185 0 0 -30z"/>
</g>
</svg>
