<?xml version="1.0" standalone="no"?>
<!DOCTYPE svg PUBLIC "-//W3C//DTD SVG 20010904//EN"
 "http://www.w3.org/TR/2001/REC-SVG-20010904/DTD/svg10.dtd">
<svg version="1.0" xmlns="http://www.w3.org/2000/svg"
 width="34.000000pt" height="26.000000pt" viewBox="0 0 34.000000 26.000000"
 preserveAspectRatio="xMidYMid meet">

<g transform="translate(0.000000,26.000000) scale(0.100000,-0.100000)"
fill="#000000" stroke="none">
<path d="M12 248 c-13 -13 -17 -173 -6 -202 5 -12 21 -16 73 -16 l67 0 -4 34
c-3 27 2 40 22 60 23 24 23 26 6 26 -11 0 -20 5 -20 10 0 6 22 10 49 10 28 0
53 -4 56 -10 3 -5 17 -10 31 -10 21 0 24 4 24 39 0 65 -13 71 -159 71 -85 0
-131 -4 -139 -12z m238 -38 c0 -6 -40 -10 -100 -10 -60 0 -100 4 -100 10 0 6
40 10 100 10 60 0 100 -4 100 -10z m-130 -35 c15 -18 -2 -45 -30 -45 -28 0
-45 27 -30 45 16 19 44 19 60 0z m-5 -69 c16 -12 17 -16 6 -30 -7 -9 -24 -16
-36 -16 -30 0 -42 30 -19 47 22 16 26 16 49 -1z"/>
<path d="M80 160 c0 -5 5 -10 10 -10 6 0 10 5 10 10 0 6 -4 10 -10 10 -5 0
-10 -4 -10 -10z"/>
<path d="M80 90 c0 -5 5 -10 10 -10 6 0 10 5 10 10 0 6 -4 10 -10 10 -5 0 -10
-4 -10 -10z"/>
<path d="M188 125 c-68 -37 -27 -125 58 -125 32 0 80 25 88 45 27 71 -67 122
-146 80z m90 -46 c27 -1 27 -1 3 -8 -13 -3 -27 -15 -31 -26 -6 -18 -7 -18 -12
2 -3 12 -16 23 -29 26 -22 4 -22 4 4 6 20 1 27 6 28 24 l2 22 4 -22 c3 -17 12
-23 31 -24z"/>
</g>
</svg>
