<?xml version="1.0" standalone="no"?>
<!DOCTYPE svg PUBLIC "-//W3C//DTD SVG 20010904//EN"
 "http://www.w3.org/TR/2001/REC-SVG-20010904/DTD/svg10.dtd">
<svg version="1.0" xmlns="http://www.w3.org/2000/svg"
 width="32.000000pt" height="32.000000pt" viewBox="0 0 32.000000 32.000000"
 preserveAspectRatio="xMidYMid meet">

<g transform="translate(0.000000,32.000000) scale(0.100000,-0.100000)"
fill="#000000" stroke="none">
<path d="M92 280 c-94 -57 -94 -183 0 -240 64 -39 146 -16 188 52 71 117 -71
259 -188 188z m98 -54 c28 -35 -11 -93 -47 -70 -36 22 -23 84 17 84 10 0 23
-7 30 -14z m36 -127 c19 -21 18 -21 -6 -41 -29 -24 -102 -21 -128 6 -14 14
-14 17 3 36 26 29 105 28 131 -1z"/>
</g>
</svg>
